<svg width="1228" height="913" viewBox="0 0 1228 913" fill="none" xmlns="http://www.w3.org/2000/svg">
<path opacity="0.5" d="M493.083 257.821C180.58 221.638 -20.089 411.248 114.399 596.347C202.802 718.019 303.26 751.736 422.645 662.961C520.165 590.444 565.085 671.196 637.58 680.77C765.103 697.61 794.195 565.569 975.573 564.996C1156.95 564.423 1068.38 378.474 1012.57 257.821C956.762 137.169 851.689 189.307 760.573 229.996C624.073 308.496 702.58 282.078 493.083 257.821Z" fill="url(#paint0_linear_43_1392)"/>
<path opacity="0.5" d="M420.911 186.003C110.789 238.837 -92.2607 339.43 42.2271 524.529C130.63 646.2 196.24 608.952 353.24 641.678C467.006 678.289 496.74 631.995 565.408 608.952C688.401 567.678 759.911 540.854 859.411 452.854C958.921 392.029 947.551 380.83 891.74 260.178C817.578 232.353 799.24 158.178 688.401 158.178C515.24 158.178 584.24 158.178 420.911 186.003Z" fill="url(#paint1_linear_43_1392)"/>
<path opacity="0.5" d="M386.676 666.251C582.304 765.305 813.893 756.349 1055.27 480.768C1213.93 299.62 1138.93 234.746 1111.43 193.746C1056.97 130.329 1055.27 135.071 997.411 119.571C890.485 90.9245 819.889 96.5451 645.703 144.221C514.131 161.499 501.327 177.682 332.411 341.071C297.911 379.071 205.465 504.449 245.77 560.969C308.739 649.268 283.648 614.083 386.676 666.251Z" fill="url(#paint2_linear_43_1392)"/>
<defs>
<linearGradient id="paint0_linear_43_1392" x1="1359.08" y1="496.746" x2="1269.78" y2="-44.6396" gradientUnits="userSpaceOnUse">
<stop stop-color="#83EBEC"/>
<stop offset="0.53125" stop-color="#21BAF4"/>
<stop offset="1" stop-color="#88DCDD"/>
</linearGradient>
<linearGradient id="paint1_linear_43_1392" x1="1294.08" y1="622.745" x2="1204.78" y2="81.3602" gradientUnits="userSpaceOnUse">
<stop stop-color="#83EBEC"/>
<stop offset="0.5362" stop-color="#21BAF4"/>
<stop offset="1" stop-color="#88DCDD"/>
</linearGradient>
<linearGradient id="paint2_linear_43_1392" x1="775.552" y1="-280.099" x2="332.836" y2="566.396" gradientUnits="userSpaceOnUse">
<stop stop-color="#6080DC"/>
<stop offset="0.5362" stop-color="#2A16A9"/>
<stop offset="1" stop-color="#88DCDD"/>
</linearGradient>
</defs>
</svg>
