<svg width="30" height="23" viewBox="0 0 30 23" fill="none" xmlns="http://www.w3.org/2000/svg">
<path d="M4.42188 22.2583H24.9419C27.7373 22.2583 29.251 20.7446 29.251 17.9736V10.7227C29.251 8.98926 29.0435 8.24463 28.2378 7.25586L24.5635 2.75146C22.9399 0.773926 22.2319 0.13916 19.9492 0.13916H9.41455C7.14404 0.13916 6.42383 0.773926 4.80029 2.75146L1.12598 7.25586C0.320312 8.24463 0.112793 8.98926 0.112793 10.7227V17.9736C0.112793 20.7446 1.63867 22.2583 4.42188 22.2583ZM14.688 12.6758C13.1743 12.6758 12.271 11.394 12.271 10.2222V10.1855C12.271 9.74609 12.0024 9.34326 11.3433 9.34326H3.82373C3.43311 9.34326 3.34766 9.00146 3.55518 8.74512L7.7666 3.5083C8.23047 2.93457 8.75537 2.65381 9.47559 2.65381H19.8882C20.6084 2.65381 21.1333 2.93457 21.5972 3.5083L25.8086 8.74512C26.0161 9.00146 25.9307 9.34326 25.54 9.34326H18.0205C17.3613 9.34326 17.0928 9.74609 17.0928 10.1855V10.2222C17.0928 11.394 16.1895 12.6758 14.688 12.6758ZM4.67822 19.1089C3.70166 19.1089 3.17676 18.6328 3.17676 17.5952V12.041H9.82959C10.3667 14.0552 12.2344 15.5566 14.688 15.5566C17.1294 15.5566 18.9971 14.0552 19.5342 12.041H26.187V17.5952C26.187 18.6328 25.6621 19.1089 24.6855 19.1089H4.67822Z" fill="#FF3B9F"/>
</svg>
