<svg width="26" height="27" viewBox="0 0 26 27" fill="none" xmlns="http://www.w3.org/2000/svg">
<path d="M13.0757 26.0894C20.1558 26.0894 25.9663 20.2666 25.9663 13.1865C25.9663 6.11865 20.1436 0.295898 13.0757 0.295898C5.99561 0.295898 0.185059 6.11865 0.185059 13.1865C0.185059 20.2666 6.00781 26.0894 13.0757 26.0894ZM13.0757 22.8789C7.7168 22.8789 3.40771 18.5576 3.40771 13.1865C3.40771 7.82764 7.70459 3.50635 13.0757 3.50635C18.4346 3.50635 22.7559 7.82764 22.7559 13.1865C22.7559 18.5576 18.4468 22.8789 13.0757 22.8789ZM7.27734 15.0542H13.0757C13.7349 15.0542 14.2476 14.5293 14.2476 13.8701V6.27734C14.2476 5.61816 13.7349 5.10547 13.0757 5.10547C12.4165 5.10547 11.8916 5.61816 11.8916 6.27734V12.6982H7.27734C6.61816 12.6982 6.10547 13.2109 6.10547 13.8701C6.10547 14.5293 6.61816 15.0542 7.27734 15.0542Z" fill="#21BAF4"/>
</svg>
