<svg width="17" height="28" viewBox="0 0 17 28" fill="none" xmlns="http://www.w3.org/2000/svg">
<path d="M8.52344 27.9438C8.9873 27.9438 9.31689 27.6143 9.31689 27.126V25.1729C13.7603 24.9043 16.9463 22.5239 16.9463 18.6543C16.9463 15.3828 14.8833 13.6006 10.4766 12.5996L9.31689 12.3433V6.5083C10.9282 6.72803 12.0269 7.57031 12.6006 8.94971C13.0645 9.81641 13.6992 10.2192 14.5903 10.2192C15.7256 10.2192 16.4214 9.58447 16.4214 8.5957C16.4214 8.30273 16.3604 8.00977 16.2749 7.70459C15.5547 5.31201 13.0156 3.46875 9.31689 3.2124V1.27148C9.31689 0.783203 8.9873 0.453613 8.52344 0.453613C8.04736 0.453613 7.72998 0.783203 7.72998 1.27148V3.2002C3.40869 3.44434 0.356934 5.89795 0.356934 9.53564C0.356934 12.7827 2.48096 14.6504 6.65576 15.6025L7.72998 15.8345V21.9014C5.76465 21.7183 4.56836 20.8149 4.06787 19.3745C3.66504 18.5322 3.06689 18.0439 2.13916 18.0439C0.918457 18.0439 0.234863 18.7764 0.234863 19.8506C0.234863 20.1191 0.295898 20.4243 0.417969 20.7539C1.1626 23.0977 3.7627 24.9897 7.72998 25.1851V27.126C7.72998 27.6143 8.04736 27.9438 8.52344 27.9438ZM4.42188 9.18164C4.42188 7.79004 5.60596 6.70361 7.72998 6.49609V11.9771C5.49609 11.4155 4.42188 10.5854 4.42188 9.18164ZM12.8936 19.0815C12.8936 20.7295 11.5386 21.7061 9.31689 21.9014V16.2007C11.856 16.8232 12.8936 17.5435 12.8936 19.0815Z" fill="#E2AB4D"/>
</svg>
