<svg width="22" height="22" viewBox="0 0 22 22" fill="none" xmlns="http://www.w3.org/2000/svg">
<path d="M0.112793 11.1865C0.112793 12.2119 0.942871 13.042 1.96826 13.042H8.74316V19.8169C8.74316 20.8301 9.56104 21.6724 10.5864 21.6724C11.6118 21.6724 12.4419 20.8301 12.4419 19.8169V13.042H19.2168C20.23 13.042 21.0601 12.2119 21.0601 11.1865C21.0601 10.1733 20.23 9.34326 19.2168 9.34326H12.4419V2.56836C12.4419 1.55518 11.6118 0.712891 10.5864 0.712891C9.56104 0.712891 8.74316 1.55518 8.74316 2.56836V9.34326H1.96826C0.942871 9.34326 0.112793 10.1733 0.112793 11.1865Z" fill="black"/>
</svg>
